<?xml version="1.0" encoding="UTF-8" standalone="no"?>
<!-- Generator: Adobe Illustrator 21.0.2, SVG Export Plug-In . SVG Version: 6.00 Build 0)  -->

<svg
   xmlns:dc="http://purl.org/dc/elements/1.1/"
   xmlns:cc="http://creativecommons.org/ns#"
   xmlns:rdf="http://www.w3.org/1999/02/22-rdf-syntax-ns#"
   xmlns:svg="http://www.w3.org/2000/svg"
   xmlns="http://www.w3.org/2000/svg"
   xmlns:sodipodi="http://sodipodi.sourceforge.net/DTD/sodipodi-0.dtd"
   xmlns:inkscape="http://www.inkscape.org/namespaces/inkscape"
   version="1.1"
   id="Слой_1"
   x="0px"
   y="0px"
   viewBox="0 0 24.9 30"
   style="enable-background:new 0 0 24.9 30;"
   xml:space="preserve"
   sodipodi:docname="docs.svg"
   inkscape:version="0.92.1 r15371"><metadata
     id="metadata15"><rdf:RDF><cc:Work
         rdf:about=""><dc:format>image/svg+xml</dc:format><dc:type
           rdf:resource="http://purl.org/dc/dcmitype/StillImage" /><dc:title>4-ico-30x30-doc</dc:title></cc:Work></rdf:RDF></metadata><defs
     id="defs13" /><sodipodi:namedview
     pagecolor="#ffffff"
     bordercolor="#666666"
     borderopacity="1"
     objecttolerance="10"
     gridtolerance="10"
     guidetolerance="10"
     inkscape:pageopacity="0"
     inkscape:pageshadow="2"
     inkscape:window-width="1690"
     inkscape:window-height="929"
     id="namedview11"
     showgrid="false"
     inkscape:zoom="7.8666667"
     inkscape:cx="12.45"
     inkscape:cy="15"
     inkscape:window-x="0"
     inkscape:window-y="0"
     inkscape:window-maximized="0"
     inkscape:current-layer="Слой_1" /><style
     type="text/css"
     id="style2">
	.st0{fill:#FFFFFF;}
</style><title
     id="title4">4-ico-30x30-doc</title><path
     class="st0"
     d="M4,25V4.8H2c-1.1,0-2,0.9-2,2V28c0,1.1,0.9,2,2,2h14.9c1.1,0,2-0.9,2-2v-1H6C4.9,27,4,26.1,4,25L4,25z"
     id="path6" /><path
     class="st0"
     d="M22.9,0H8C6.9,0,6,0.9,6,2v21.2c0,1.1,0.9,2,2,2h14.9c1.1,0,2-0.9,2-2V2C24.9,0.9,24,0,22.9,0z M22.1,6H9V4  h13.1V6z M22,10H9V8H22V10z M22,14H9V12h13V14z"
     id="path8" /></svg>