<svg xmlns="http://www.w3.org/2000/svg" width="198.96" height="38.104" viewBox="0 0 198.96 38.104471" id="svg8"><defs id="defs4"><style id="style2">.cls-1{fill:#4c5c67;fill-rule:evenodd}</style></defs><path class="cls-1" d="M8.48 36.163h-.96v-3.63H3.98v3.63h-.95v-7.587h.95v3.185h3.54v-3.185h.96zm6.57-1.54a2.25 2.25 0 0 1-.92 1.228 2.69 2.69 0 0 1-3.37-.4 3.067 3.067 0 0 1-.69-2.068 2.692 2.692 0 0 1 2.63-2.975c2.1 0 2.45 1.946 2.45 2.85v.2h-4.1c-.01.373.054.744.19 1.092a1.46 1.46 0 0 0 1.47.986c.445.018.877-.159 1.18-.485.15-.178.265-.381.34-.6l.82.166zm-.87-1.844a2.369 2.369 0 0 0-.27-1.03 1.34 1.34 0 0 0-1.2-.652 1.592 1.592 0 0 0-1.23.574 2.042 2.042 0 0 0-.39 1.108zm5.85-2.257v.686h-2.58v4.955h-.84v-5.641zm3.29-.11c1.46 0 2.55 1.084 2.55 2.928 0 1.844-1.09 2.93-2.55 2.93-1.46 0-2.55-1.081-2.55-2.93 0-1.85 1.09-2.927 2.55-2.927zm1.57 2.928c0-1.844-.89-2.2-1.57-2.2s-1.58.354-1.58 2.2.9 2.2 1.58 2.2 1.57-.353 1.57-2.2zm5.81-.848a2.18 2.18 0 0 0-.31-.855 1.286 1.286 0 0 0-2.12.134 3.09 3.09 0 0 0-.36 1.593 2.876 2.876 0 0 0 .36 1.619c.24.36.648.57 1.08.559.386.018.757-.156.99-.464a2.01 2.01 0 0 0 .36-.916l.8.139a2.545 2.545 0 0 1-.64 1.374c-.404.403-.959.62-1.53.595a2.3 2.3 0 0 1-1.56-.548 3.278 3.278 0 0 1-.84-2.368c-.024-.72.183-1.43.59-2.025a2.159 2.159 0 0 1 1.86-.916c.584-.03 1.15.206 1.54.642.302.373.502.819.58 1.293zm3.92 4.2c-.117.376-.319.72-.59 1.006a1.464 1.464 0 0 1-1.06.406 2.272 2.272 0 0 1-.71-.11v-.653c.198.057.404.083.61.075a.882.882 0 0 0 .63-.184c.264-.275.45-.614.54-.983l.06-.186-1.98-5.543h.97l1.46 4.336 1.53-4.336h.77zm7.14-6.172v4.95h.58v2.207h-.78V36.16H37.8v1.516h-.77V35.47h.42a4.64 4.64 0 0 0 .53-1 9.824 9.824 0 0 0 .49-3.44l.01-.51h3.28zm-2.58.987a11.011 11.011 0 0 1-.5 3.17c-.11.29-.29.663-.35.794h2.59v-4.265h-1.73l-.01.3zm4.21.439c.24-1.2 1.17-1.535 2.39-1.535a2.6 2.6 0 0 1 1.61.41c.508.528.738 1.265.62 1.989v2.17c.01.398.055.793.14 1.18h-.88a7.863 7.863 0 0 1-.1-1.05 2.054 2.054 0 0 1-1.98 1.158 2.09 2.09 0 0 1-1.45-.494 1.6 1.6 0 0 1-.51-1.2 1.669 1.669 0 0 1 .77-1.427 4.31 4.31 0 0 1 2.44-.473h.73v-.224a1.555 1.555 0 0 0-.22-.94 1.355 1.355 0 0 0-1.18-.411 1.377 1.377 0 0 0-1.57.985l-.81-.134zm3.06 1.416a3.708 3.708 0 0 0-1.71.28 1.021 1.021 0 0 0-.57.934c0 .306.15.593.41.757.243.148.525.22.81.207a1.753 1.753 0 0 0 1.34-.626c.274-.369.427-.813.44-1.271v-.281zm3.45 4.632V30.52h.77v1.062l.01-.01a1.823 1.823 0 0 1 1.69-1.161 1.978 1.978 0 0 1 1.56.654c.492.643.743 1.437.71 2.246a3.7 3.7 0 0 1-.6 2.12 1.989 1.989 0 0 1-1.67.837 1.628 1.628 0 0 1-1.6-.99h-.03v2.716zm.84-4.065a1.63 1.63 0 0 0 .4 1.138c.275.3.663.472 1.07.473a1.278 1.278 0 0 0 1.11-.66 3.2 3.2 0 0 0 .34-1.56 2.873 2.873 0 0 0-.33-1.551 1.24 1.24 0 0 0-1.11-.63 1.358 1.358 0 0 0-1.02.443c-.3.312-.465.73-.46 1.163zm8.73-1.44a2.18 2.18 0 0 0-.31-.854 1.2 1.2 0 0 0-1.03-.5 1.227 1.227 0 0 0-1.09.629 3.09 3.09 0 0 0-.36 1.593 2.876 2.876 0 0 0 .36 1.619 1.27 1.27 0 0 0 1.08.559c.386.018.757-.156.99-.464a2.01 2.01 0 0 0 .36-.916l.8.139a2.472 2.472 0 0 1-.64 1.374c-.404.403-.959.62-1.53.595a2.3 2.3 0 0 1-1.56-.548 3.278 3.278 0 0 1-.84-2.368c-.024-.72.183-1.43.59-2.025a2.159 2.159 0 0 1 1.86-.916c.584-.03 1.15.206 1.54.642.302.373.502.819.58 1.293l-.8.144zm5.7-1.97v.687h-1.78v4.955h-.84v-4.955h-1.77v-.686zm3.58 0c.454-.033.91.052 1.32.248.687.457.792 1.425.22 2.02a1.45 1.45 0 0 1-.73.357v.02c.39.024.76.18 1.05.44.252.258.389.605.38.965.01.486-.208.948-.59 1.25a2.094 2.094 0 0 1-1.38.342h-2.78V30.52zm-1.66 2.356h1.57a1.1 1.1 0 0 0 .86-.287.954.954 0 0 0 .22-.642.65.65 0 0 0-.25-.538 1.041 1.041 0 0 0-.75-.2h-1.65v1.669zm0 2.6h1.77c.32.02.636-.076.89-.272a.973.973 0 0 0 .26-.685.88.88 0 0 0-.34-.723 1.555 1.555 0 0 0-.89-.227h-1.69zm10.1-.85a2.279 2.279 0 0 1-.91 1.228 2.485 2.485 0 0 1-1.46.419 2.389 2.389 0 0 1-1.91-.814 3.017 3.017 0 0 1-.69-2.068 2.684 2.684 0 0 1 2.62-2.975c2.11 0 2.45 1.946 2.45 2.85v.2h-4.1c-.01.373.054.744.19 1.092.217.618.816 1.02 1.47.986.445.018.877-.159 1.18-.485.156-.175.275-.379.35-.6l.81.166zm-.87-1.844a2.293 2.293 0 0 0-.27-1.03 1.327 1.327 0 0 0-1.2-.652 1.556 1.556 0 0 0-1.22.574 1.9 1.9 0 0 0-.39 1.108zm3.28-2.257v2.355h2.61v-2.355h.85v5.64h-.85v-2.6H79.6v2.6h-.85v-5.64zm6.27 0v2.355h2.62v-2.355h.84v5.64h-.84v-2.6h-2.62v2.6h-.84v-5.64zm6.28 0v2.226h1.57a1.917 1.917 0 0 1 1.39.429c.318.332.484.78.46 1.239a1.7 1.7 0 0 1-.57 1.36 1.6 1.6 0 0 1-1.13.388H91.3v-5.641h.85zm0 4.95h1.31c.3.031.6-.052.84-.232.23-.215.355-.52.34-.834a.92.92 0 0 0-.37-.8 1.65 1.65 0 0 0-.77-.175h-1.35v2.04zm5-4.95v5.64h-.84v-5.64zm2.82 0v3.383c0 .369-.01.369-.03.775.142-.311.32-.605.53-.874l2.12-2.792v-.492h.84v5.64h-.84v-3.327c0-.2.01-.541.04-.807-.13.285-.302.55-.51.784l-2.15 2.806v.545h-.84v-5.641zm2.83-1.97c0 .286-.103.561-.29.777a1.645 1.645 0 0 1-1.23.464 1.621 1.621 0 0 1-1.23-.464 1.183 1.183 0 0 1-.29-.776h.8a.75.75 0 0 0 .19.466.677.677 0 0 0 .53.189.7.7 0 0 0 .53-.19.845.845 0 0 0 .19-.465zm9.66 1.97v5.64h-.84V31.21H109v4.955h-.84v-5.641zm6.49 4.1a2.25 2.25 0 0 1-.92 1.227 2.424 2.424 0 0 1-1.44.419 2.4 2.4 0 0 1-1.92-.814 2.969 2.969 0 0 1-.69-2.068 2.684 2.684 0 0 1 2.62-2.975c2.11 0 2.45 1.946 2.45 2.85v.2h-4.1c-.01.373.054.744.19 1.092.217.618.816 1.02 1.47.986.446.018.877-.159 1.18-.485.156-.175.275-.379.35-.6l.81.166zm-.87-1.845a2.293 2.293 0 0 0-.27-1.03 1.34 1.34 0 0 0-1.2-.652 1.592 1.592 0 0 0-1.23.574 1.95 1.95 0 0 0-.38 1.108zm3.28-2.257v2.355h2.61v-2.355h.84v5.64h-.84v-2.6h-2.61v2.6h-.85v-5.64zm8.74 1.97a2.043 2.043 0 0 0-.31-.855 1.277 1.277 0 0 0-2.11.134 3.1 3.1 0 0 0-.37 1.593 2.74 2.74 0 0 0 .37 1.619c.236.36.64.57 1.07.559.387.018.757-.156.99-.464.198-.269.323-.585.36-.916l.8.139a2.545 2.545 0 0 1-.64 1.374c-.404.403-.959.62-1.53.595a2.253 2.253 0 0 1-1.55-.548 3.241 3.241 0 0 1-.85-2.368c-.024-.72.183-1.43.59-2.025a2.165 2.165 0 0 1 1.87-.916c.584-.03 1.15.206 1.54.642.3.374.496.82.57 1.293zm3.05-1.97v3.383c0 .369-.01.369-.03.775.142-.311.32-.605.53-.874l2.12-2.792v-.492h.84v5.64h-.84v-3.327c0-.2.01-.541.04-.807-.13.285-.302.55-.51.784l-2.15 2.806v.545h-.84v-5.641zm7.53-.11c1.46 0 2.54 1.084 2.54 2.928 0 1.844-1.08 2.93-2.54 2.93s-2.56-1.081-2.56-2.93c0-1.85 1.1-2.927 2.56-2.927zm1.57 2.928c0-1.844-.9-2.2-1.57-2.2s-1.58.354-1.58 2.2.9 2.2 1.58 2.2 1.57-.353 1.57-2.2zm3.34-2.818v2.355h2.61v-2.355h.84v5.64h-.84v-2.6h-2.61v2.6h-.85v-5.64zm6.27 0v2.355h2.62v-2.355h.84v5.64h-.84v-2.6h-2.62v2.6h-.84v-5.64zm6.27 0v2.228h1.58a1.9 1.9 0 0 1 1.39.429c.318.332.484.78.46 1.239a1.7 1.7 0 0 1-.57 1.36c-.316.272-.724.41-1.14.388h-2.56v-5.641h.84zm0 4.95h1.32c.297.032.594-.052.83-.232.234-.213.362-.518.35-.834a.9.9 0 0 0-.38-.8 1.6 1.6 0 0 0-.77-.175h-1.35v2.04zm5.01-4.95v5.64h-.84v-5.64zm2.82 0v3.383a7.17 7.17 0 0 1-.04.775c.145-.312.327-.605.54-.874l2.11-2.792v-.492h.84v5.64h-.84v-3.327c0-.27.015-.54.05-.807-.14.28-.31.543-.51.784l-2.15 2.806v.545h-.85v-5.641zm2.82-1.97c0 .287-.099.564-.29.777a1.862 1.862 0 0 1-2.46 0 1.184 1.184 0 0 1-.28-.776h.79a.78.78 0 0 0 .19.466.7.7 0 0 0 .53.189.708.708 0 0 0 .54-.19.845.845 0 0 0 .19-.465zm8.69.024v1.946h.12c.655.016 1.29.222 1.83.594a3.082 3.082 0 0 1 .17 4.357 3.1 3.1 0 0 1-2.12.69v1.833h-.84v-1.833a3.116 3.116 0 0 1-2.12-.69 3.082 3.082 0 0 1 .17-4.357 3.408 3.408 0 0 1 1.84-.594h.11v-1.946zm-.81 2.632h-.09a2.02 2.02 0 0 0-1.19.307 2.56 2.56 0 0 0 .03 3.65 1.77 1.77 0 0 0 1.12.308h.13zm.78 4.265h.13c.398.026.792-.082 1.12-.308.566-.428.866-1.12.79-1.825a2.05 2.05 0 0 0-.76-1.825 2.021 2.021 0 0 0-1.19-.307h-.09zm6.59-5.06c1.46 0 2.54 1.083 2.54 2.927s-1.08 2.93-2.54 2.93-2.56-1.081-2.56-2.93c0-1.85 1.09-2.927 2.56-2.927zm1.57 2.927c0-1.844-.9-2.2-1.57-2.2s-1.58.354-1.58 2.2.9 2.2 1.58 2.2 1.57-.353 1.57-2.2zm3.33-2.818v2.355h2.62v-2.355h.84v5.64h-.84v-2.6h-2.62v2.6h-.84v-5.64zm9.38 0v4.95h.57v2.207h-.77v-1.516h-3.76v1.516h-.77v-2.206h.42c.21-.315.387-.65.53-1a10.04 10.04 0 0 0 .49-3.44l.01-.51h3.28zm-2.58.987a11.747 11.747 0 0 1-.5 3.17 8.213 8.213 0 0 1-.36.794h2.6v-4.265h-1.73l-.01.3z" id="path6" fill="#a72c4f" fill-rule="evenodd"/><path class="cls-1" d="M123.02.617v4.481h-6.1v14.6h-5.2V.617zm-15.03 8.336h-7.51v3.717h5.06zM85.56 5.422s.01 3.8-.04 5c-.12 2.811-.37 3.805-.78 4.476-.5.826-1.37 1.061-2.65 1.4l.95 3.72c2.72-.106 3.57-.782 4.35-1.46 1.17-1.06 1.75-2.5 2.08-5.144.181-1.408.275-2.825.28-4.244h2.51v10.518h4.42V5.422zM4.35.611s.02 5.275-.05 6.877c-.17 3.764-.64 5.616-1.47 6.792A4.979 4.979 0 0 1 0 16.213l3.3 3.959a6.91 6.91 0 0 0 3.35-2.1c1.5-1.783 2.56-4.662 2.6-13.077h3.83v14.692h5.25V.617H4.35zm126.48 13.234a3.174 3.174 0 0 1-3.05 3 1.3 1.3 0 0 1-1.41-1.273c0-1.153.54-1.9 4.46-1.9v.181zm4.67 2.741v-2.594c0-1.129.21-4.488-.48-6.011-1.01-2.253-3.01-2.985-5.36-2.985a10.986 10.986 0 0 0-6.45 1.9l1.73 2.853a7.625 7.625 0 0 1 3.84-1.062c1.55.046 2.17.883 2.17 1.9v.221l-1.81.114c-2.08.167-4 .19-5.64 1.489a4.333 4.333 0 0 0-1.57 3.418c0 1.847 1.31 4.125 4.99 4.125a4.6 4.6 0 0 0 3.91-2.02 8.75 8.75 0 0 0 .34 1.733h4.75c-.31-1-.451-2.043-.42-3.088zm27.4-2.741a3.181 3.181 0 0 1-3.05 3 1.3 1.3 0 0 1-1.41-1.273c0-1.153.54-1.9 4.46-1.9v.181zm4.67 2.741v-2.594c0-1.129.2-4.488-.48-6.011-1.02-2.253-3.01-2.985-5.36-2.985a10.986 10.986 0 0 0-6.45 1.9l1.73 2.853a7.6 7.6 0 0 1 3.84-1.062c1.55.046 2.17.883 2.17 1.9v.221l-1.82.114c-2.07.167-4 .19-5.63 1.489a4.333 4.333 0 0 0-1.57 3.418c0 1.847 1.3 4.125 4.99 4.125a4.614 4.614 0 0 0 3.91-2.02c.045.589.159 1.17.34 1.733h4.75c-.31-1-.451-2.043-.42-3.088zm18.05-11.15v3.391h4.33v10.865h4.72l-.01-10.87h4.3V5.431h-13.34zM75.98 5.422l-3.92 6.533c-.312.56-.652 1.105-1.02 1.63.09-.446.19-1.572.24-2V5.422h-4.64v14.257h4.62l4.28-7.043c.3-.669.46-.9.64-1.374-.07.385-.2 1.758-.22 2.048v6.37h4.74l-.01-14.258zM29.67 20.213a10.283 10.283 0 0 1-2.2 3.506 5.693 5.693 0 0 1-3.64 1.1 16.643 16.643 0 0 1-3.12-.256v-3.921c.66.145 1.327.247 2 .305.74 0 2.13.02 2.58-1.075.2-.494.19-.335.19-.335L20.15 5.425h5.27l2.28 9.389 1.7-9.389h5.08s-3.42 11.334-4.81 14.788zM175.32 5.422v5.223h3.98V5.422h4.67v14.251h-4.67v-5.354h-3.98v5.354h-4.73V5.422zM72.02 0a2 2 0 0 0 .36 1.1c.705.75 1.895.75 2.6 0a2.09 2.09 0 0 0 .36-1.1l3.62.323c-.03 1.233-.29 4.673-5.28 4.673S68.43 1.556 68.4.323zM44.53 19.7h5.54l-5.14-7.578 4.71-6.7h-5.37l-3.38 5.18h-.58v-5.18h-4.65v14.27h4.65v-5.628h.48l3.74 5.628zM57 16.661c1.75 0 2.37-1.574 2.37-4.126 0-2.8-.35-4.124-2.27-4.124-1.79 0-2.45 1.055-2.45 4.124 0 2.544.46 4.126 2.35 4.126zm.29-11.571c4.02 0 7.07 2.094 7.07 7.445 0 5.1-3.05 7.446-7.36 7.446-4.43 0-7.21-2.4-7.21-7.446 0-5.56 3.48-7.445 7.5-7.445zm88.18 11.466a2.953 2.953 0 0 1-2.15-.9v-5.364a3.262 3.262 0 0 1 2.4-1.444c1.53 0 2.11.912 2.11 3.716 0 2.547-.62 3.985-2.36 3.985zm1.51-11.466a5.334 5.334 0 0 0-3.66 1.7V5.422h-4.65v19h4.65v-5.2c.874.472 1.847.73 2.84.756 4.1 0 6.5-2.345 6.5-7.446 0-5.351-1.67-7.445-5.68-7.445z" id="path6-8" fill="#4c5c67" fill-rule="evenodd"/></svg>