<?xml version="1.0" encoding="UTF-8" standalone="no"?>
<svg
   xmlns:dc="http://purl.org/dc/elements/1.1/"
   xmlns:cc="http://creativecommons.org/ns#"
   xmlns:rdf="http://www.w3.org/1999/02/22-rdf-syntax-ns#"
   xmlns:svg="http://www.w3.org/2000/svg"
   xmlns="http://www.w3.org/2000/svg"
   xmlns:sodipodi="http://sodipodi.sourceforge.net/DTD/sodipodi-0.dtd"
   xmlns:inkscape="http://www.inkscape.org/namespaces/inkscape"
   width="198.96001"
   height="38.104469"
   viewBox="0 0 198.96 38.104471"
   version="1.1"
   id="svg8"
   sodipodi:docname="logo.svg"
   inkscape:version="0.92.1 r15371">
  <metadata
     id="metadata12">
    <rdf:RDF>
      <cc:Work
         rdf:about="">
        <dc:format>image/svg+xml</dc:format>
        <dc:type
           rdf:resource="http://purl.org/dc/dcmitype/StillImage" />
      </cc:Work>
    </rdf:RDF>
  </metadata>
  <sodipodi:namedview
     pagecolor="#ffffff"
     bordercolor="#666666"
     borderopacity="1"
     objecttolerance="10"
     gridtolerance="10"
     guidetolerance="10"
     inkscape:pageopacity="0"
     inkscape:pageshadow="2"
     inkscape:window-width="1878"
     inkscape:window-height="1011"
     id="namedview10"
     showgrid="false"
     inkscape:zoom="4.7451492"
     inkscape:cx="108.5861"
     inkscape:cy="8.8257637"
     inkscape:window-x="0"
     inkscape:window-y="0"
     inkscape:window-maximized="0"
     inkscape:current-layer="svg8" />
  <defs
     id="defs4">
    <style
       id="style2">
      .cls-1 {
        fill: #4c5c67;
        fill-rule: evenodd;
      }
    </style>
  </defs>
  <path
     class="cls-1"
     d="m 8.4801926,36.162704 h -0.96 v -3.629 h -3.54 v 3.629 h -0.95 v -7.587 h 0.95 v 3.185 h 3.54 v -3.185 h 0.96 z m 6.5699894,-1.539 c -0.1535,0.50412 -0.4791,0.93836 -0.92,1.227 -1.0763,0.68147 -2.4831,0.51449 -3.37,-0.4 -0.475498,-0.58157 -0.720996,-1.31743 -0.689996,-2.068 -0.1663991,-1.57135 1.050096,-2.94739 2.629996,-2.975 2.1,0 2.45,1.946 2.45,2.85 v 0.2 h -4.1 c -0.01,0.37304 0.054,0.74435 0.19,1.092 0.2122,0.62209 0.8139,1.0257 1.47,0.986 0.4453,0.0185 0.8764,-0.15867 1.18,-0.485 0.1492,-0.17744 0.2644,-0.38083 0.34,-0.6 l 0.82,0.166 v 0 z m -0.87,-1.845 c -0.011,-0.35906 -0.103,-0.71097 -0.27,-1.029 -0.2507,-0.42054 -0.7107,-0.67089 -1.2,-0.653 -0.4751,-0.002 -0.9261,0.20883 -1.23,0.574 -0.2357,0.32319 -0.3713,0.70845 -0.39,1.108 z m 5.85,-2.257 v 0.686 h -2.58 v 4.955 h -0.84 v -5.641 z m 3.29,-0.109 c 1.46,0 2.55,1.083 2.55,2.927 0,1.844 -1.09,2.93 -2.55,2.93 -1.46,0 -2.55,-1.081 -2.55,-2.93 0,-1.849 1.09,-2.927 2.55,-2.927 z m 1.57,2.927 c 0,-1.844 -0.89,-2.2 -1.57,-2.2 -0.68,0 -1.58,0.354 -1.58,2.2 0,1.846 0.9,2.2 1.58,2.2 0.68,0 1.57,-0.353 1.57,-2.2 z m 5.81,-0.848 c -0.042,-0.3036 -0.1478,-0.59492 -0.31,-0.855 -0.5567,-0.71423 -1.6576,-0.64464 -2.12,0.134 -0.2607,0.48909 -0.3851,1.03932 -0.36,1.593 -0.042,0.56331 0.084,1.12642 0.36,1.619 0.2398,0.35981 0.6478,0.57099 1.08,0.559 0.3863,0.018 0.7567,-0.15559 0.99,-0.464 0.194,-0.2708 0.3177,-0.58556 0.36,-0.916 l 0.8,0.139 c -0.069,0.51241 -0.292,0.9917 -0.64,1.374 -0.4043,0.40363 -0.9592,0.61943 -1.53,0.595 -0.57,0.017 -1.1259,-0.17827 -1.56,-0.548 -0.5834,-0.64643 -0.8856,-1.49843 -0.84,-2.368 -0.024,-0.72063 0.1826,-1.43012 0.59,-2.025 0.4232,-0.60253 1.1244,-0.94782 1.86,-0.916 0.5839,-0.0295 1.1499,0.20643 1.54,0.642 0.3023,0.37337 0.5021,0.81897 0.58,1.293 z m 3.92,4.2 c -0.1169,0.37616 -0.3188,0.72037 -0.59,1.006 -0.2844,0.27238 -0.6664,0.41872 -1.06,0.406 -0.241,10e-4 -0.4807,-0.0357 -0.71,-0.11 v -0.653 c 0.198,0.0576 0.404,0.083 0.61,0.075 0.2259,0.022 0.4515,-0.0439 0.63,-0.184 0.2636,-0.27423 0.45,-0.6134 0.54,-0.983 l 0.06,-0.186 -1.98,-5.543 h 0.97 l 1.46,4.336 1.53,-4.336 h 0.77 z m 7.14,-6.172 v 4.951 h 0.58 v 2.206 h -0.78 v -1.516 h -3.76 v 1.516 h -0.77 v -2.206 h 0.42 c 0.2168,-0.31044 0.3948,-0.64628 0.53,-1 0.3664,-1.10844 0.5324,-2.27333 0.49,-3.44 l 0.01,-0.509 h 3.28 z m -2.58,0.987 c -0.011,1.07576 -0.1792,2.14414 -0.5,3.171 -0.11,0.29 -0.29,0.662 -0.35,0.793 h 2.59 v -4.265 h -1.73 l -0.01,0.3 v 0 z m 4.21,0.439 c 0.24,-1.2 1.17,-1.535 2.39,-1.535 0.5671,-0.0431 1.1326,0.10093 1.61,0.41 0.5079,0.52862 0.7376,1.26539 0.62,1.989 v 2.171 c 0.01,0.39698 0.055,0.79223 0.14,1.18 h -0.88 c -0.057,-0.34734 -0.09,-0.69814 -0.1,-1.05 -0.3632,0.7525 -1.1461,1.20997 -1.98,1.157 -0.5284,0.0248 -1.0466,-0.15176 -1.45,-0.494 -0.3327,-0.30945 -0.5181,-0.74573 -0.51,-1.2 -0.01,-0.57625 0.2856,-1.11488 0.77,-1.427 0.7492,-0.39384 1.5979,-0.55835 2.44,-0.473 h 0.73 v -0.224 c 0.028,-0.32839 -0.049,-0.65712 -0.22,-0.939 -0.3027,-0.32137 -0.743,-0.47511 -1.18,-0.412 -0.699,-0.12571 -1.379,0.3009 -1.57,0.985 l -0.81,-0.134 v 0 z m 3.06,1.416 c -0.5842,-0.0427 -1.1702,0.0536 -1.71,0.281 -0.3545,0.17449 -0.5766,0.5379 -0.57,0.933 0,0.30657 0.1507,0.59344 0.41,0.757 0.2431,0.14872 0.5253,0.22085 0.81,0.207 0.5171,-9.4e-4 1.0074,-0.23001 1.34,-0.626 0.2736,-0.36847 0.4273,-0.81222 0.44,-1.271 v -0.281 z m 3.45,4.632 v -7.474 h 0.77 v 1.062 l 0.01,-0.009 c 0.2714,-0.69754 0.9415,-1.15832 1.69,-1.162 0.5917,-0.0266 1.1641,0.21343 1.56,0.654 0.4915,0.64286 0.7427,1.43742 0.71,2.246 0.02,0.7512 -0.1894,1.49066 -0.6,2.12 -0.3829,0.53931 -1.0088,0.85302 -1.67,0.837 -0.6893,0.0428 -1.3307,-0.35402 -1.6,-0.99 h -0.03 v 2.716 z m 0.84,-4.065 c -0.017,0.41653 0.126,0.82377 0.4,1.138 0.2747,0.30053 0.6628,0.4721 1.07,0.473 0.4621,-0.003 0.8865,-0.25549 1.11,-0.66 0.2433,-0.48292 0.3603,-1.01963 0.34,-1.56 0.038,-0.53772 -0.077,-1.07518 -0.33,-1.551 -0.2256,-0.39837 -0.6523,-0.64014 -1.11,-0.629 -0.3875,-0.005 -0.7586,0.15588 -1.02,0.442 -0.2998,0.3124 -0.465,0.73003 -0.46,1.163 z m 8.73,-1.439 c -0.042,-0.3036 -0.1478,-0.59492 -0.31,-0.855 -0.2366,-0.33027 -0.6242,-0.51843 -1.03,-0.5 -0.4514,-0.007 -0.87,0.23478 -1.09,0.629 -0.2607,0.48909 -0.3851,1.03932 -0.36,1.593 -0.042,0.56331 0.084,1.12642 0.36,1.619 0.2416,0.35778 0.6484,0.56834 1.08,0.559 0.3863,0.018 0.7567,-0.15559 0.99,-0.464 0.194,-0.2708 0.3177,-0.58556 0.36,-0.916 l 0.8,0.139 c -0.064,0.51368 -0.2882,0.99424 -0.64,1.374 -0.4043,0.40363 -0.9592,0.61943 -1.53,0.595 -0.57,0.017 -1.1259,-0.17827 -1.56,-0.548 -0.5834,-0.64643 -0.8856,-1.49843 -0.84,-2.368 -0.024,-0.72063 0.1826,-1.43012 0.59,-2.025 0.4232,-0.60253 1.1244,-0.94782 1.86,-0.916 0.5839,-0.0295 1.1499,0.20643 1.54,0.642 0.3023,0.37337 0.5021,0.81897 0.58,1.293 l -0.8,0.144 v 0 z m 5.7,-1.97 v 0.686 h -1.78 v 4.955 h -0.84 v -4.955 h -1.77 v -0.686 z m 3.58,0 c 0.454,-0.0341 0.909,0.0511 1.32,0.247 0.6869,0.45757 0.7923,1.42528 0.22,2.02 -0.2043,0.18615 -0.4576,0.31001 -0.73,0.357 v 0.02 c 0.3897,0.0244 0.7597,0.17984 1.05,0.441 0.2514,0.257 0.3884,0.60459 0.38,0.964 0.01,0.48605 -0.2085,0.94865 -0.59,1.25 -0.406,0.27145 -0.8942,0.39243 -1.38,0.342 h -2.78 v -5.641 z m -1.66,2.355 h 1.57 c 0.3146,0.0324 0.6279,-0.0722 0.86,-0.287 0.1495,-0.1798 0.2278,-0.40827 0.22,-0.642 0.01,-0.20882 -0.086,-0.40844 -0.25,-0.538 -0.2149,-0.16086 -0.4836,-0.23252 -0.75,-0.2 h -1.65 v 1.669 0 z m 0,2.6 h 1.77 c 0.3199,0.0206 0.6363,-0.0761 0.89,-0.272 0.1726,-0.18573 0.2659,-0.43151 0.26,-0.685 0.01,-0.28132 -0.1183,-0.54968 -0.34,-0.723 -0.267,-0.16356 -0.5772,-0.24267 -0.89,-0.227 h -1.69 z m 10.1,-0.849 c -0.1531,0.50151 -0.4745,0.93487 -0.91,1.227 -0.431,0.28862 -0.9415,0.43514 -1.46,0.419 -0.7275,0.034 -1.4307,-0.26573 -1.91,-0.814 -0.4797,-0.57923 -0.7258,-1.31676 -0.69,-2.068 -0.1714,-1.56916 1.0418,-2.94669 2.62,-2.975 2.11,0 2.45,1.946 2.45,2.85 v 0.2 h -4.1 c -0.01,0.37304 0.054,0.74435 0.19,1.092 0.2167,0.61861 0.8154,1.0202 1.47,0.986 0.4453,0.0185 0.8764,-0.15867 1.18,-0.485 0.1557,-0.17452 0.2747,-0.37857 0.35,-0.6 l 0.81,0.166 v 0 z m -0.87,-1.845 c -0.01,-0.35974 -0.099,-0.71275 -0.27,-1.029 -0.2486,-0.42267 -0.7101,-0.67377 -1.2,-0.653 -0.4728,-0.004 -0.9217,0.20726 -1.22,0.574 -0.2438,0.31887 -0.3803,0.70674 -0.39,1.108 z m 3.28,-2.257 v 2.355 h 2.61 v -2.355 h 0.85 v 5.641 h -0.85 v -2.6 h -2.61 v 2.6 h -0.85 v -5.641 z m 6.27,0 v 2.355 h 2.62 v -2.355 h 0.84 v 5.641 h -0.84 v -2.6 h -2.62 v 2.6 h -0.84 v -5.641 z m 6.28,0 v 2.226 h 1.57 c 0.5017,-0.0452 1.001,0.10893 1.39,0.429 0.3174,0.33204 0.4838,0.78028 0.46,1.239 0.027,0.51678 -0.1828,1.01773 -0.57,1.361 -0.3126,0.27003 -0.7175,0.4087 -1.13,0.387 h -2.57 v -5.641 h 0.85 z m 0,4.951 h 1.31 c 0.2993,0.0304 0.5991,-0.0528 0.84,-0.233 0.2306,-0.21436 0.355,-0.51949 0.34,-0.834 0.021,-0.31224 -0.1186,-0.61361 -0.37,-0.8 -0.2387,-0.11979 -0.503,-0.17985 -0.77,-0.175 h -1.35 v 2.041 0 z m 5,-4.951 v 5.641 h -0.84 v -5.641 z m 2.820071,0 v 3.383 c 0,0.369 -0.01,0.369 -0.03,0.775 0.142097,-0.31096 0.319917,-0.60428 0.530037,-0.874 l 2.12002,-2.792 v -0.492 h 0.84 v 5.641 h -0.84 v -3.328 c 0,-0.2 0.01,-0.541 0.04,-0.807 -0.1302,0.28516 -0.3021,0.54938 -0.51,0.784 l -2.150067,2.806 v 0.545 h -0.840065 v -5.641 z m 2.830067,-1.969 c 0,0.28516 -0.103,0.56074 -0.29,0.776 -0.3277,0.31889 -0.7733,0.487 -1.23,0.464 -0.4571,0.026 -0.90393,-0.14256 -1.23006,-0.464 -0.187017,-0.21526 -0.290027,-0.49084 -0.290027,-0.776 h 0.800077 c 0.01,0.17309 0.073,0.33848 0.19001,0.466 0.1407,0.13714 0.3342,0.20615 0.53,0.189 0.1953,0.0139 0.3875,-0.0546 0.53,-0.189 0.1092,-0.13243 0.1755,-0.29497 0.19,-0.466 z m 9.66,1.969 v 5.641 h -0.84 v -4.955 h -2.62 v 4.955 h -0.84 v -5.641 z m 6.49,4.1 c -0.1535,0.50412 -0.4791,0.93836 -0.92,1.227 -0.4236,0.28838 -0.9278,0.43507 -1.44,0.419 -0.7306,0.0354 -1.4375,-0.26426 -1.92,-0.814 -0.4839,-0.5769 -0.7306,-1.31611 -0.69,-2.068 -0.1714,-1.56916 1.0418,-2.94669 2.62,-2.975 2.11,0 2.45,1.946 2.45,2.85 v 0.2 h -4.1 c -0.01,0.37304 0.054,0.74435 0.19,1.092 0.2167,0.61861 0.8154,1.0202 1.47,0.986 0.4453,0.0185 0.8764,-0.15867 1.18,-0.485 0.1557,-0.17452 0.2747,-0.37857 0.35,-0.6 l 0.81,0.166 v 0 z m -0.87,-1.845 c -0.01,-0.35974 -0.099,-0.71275 -0.27,-1.029 -0.2507,-0.42054 -0.7107,-0.67089 -1.2,-0.653 -0.4751,-0.002 -0.9261,0.20883 -1.23,0.574 -0.2369,0.32184 -0.3695,0.70852 -0.38,1.108 z m 3.28,-2.257 v 2.355 h 2.61 v -2.355 h 0.84 v 5.641 h -0.84 v -2.6 h -2.61 v 2.6 h -0.85 v -5.641 z m 8.74,1.97 c -0.038,-0.30472 -0.1436,-0.597 -0.31,-0.855 -0.5529,-0.71387 -1.6518,-0.64408 -2.11,0.134 -0.2637,0.48831 -0.3915,1.03845 -0.37,1.593 -0.047,0.56494 0.082,1.13056 0.37,1.619 0.2354,0.35954 0.6404,0.57117 1.07,0.559 0.3863,0.018 0.7567,-0.15559 0.99,-0.464 0.1981,-0.26855 0.3223,-0.58442 0.36,-0.916 l 0.8,0.139 c -0.069,0.51241 -0.292,0.9917 -0.64,1.374 -0.4043,0.40363 -0.9592,0.61943 -1.53,0.595 -0.5672,0.0191 -1.1208,-0.17662 -1.55,-0.548 -0.5906,-0.64267 -0.8971,-1.49641 -0.85,-2.368 -0.024,-0.72063 0.1826,-1.43012 0.59,-2.025 0.4259,-0.60473 1.1311,-0.95016 1.87,-0.916 0.5839,-0.0295 1.1499,0.20643 1.54,0.642 0.2995,0.37395 0.496,0.81968 0.57,1.293 z m 3.05,-1.97 v 3.383 c 0,0.369 -0.01,0.369 -0.03,0.775 0.1421,-0.31096 0.3199,-0.60428 0.53,-0.874 l 2.12,-2.792 v -0.492 h 0.84 v 5.641 h -0.84 v -3.328 c 0,-0.2 0.01,-0.541 0.04,-0.807 -0.1302,0.28516 -0.3021,0.54938 -0.51,0.784 l -2.15,2.806 v 0.545 h -0.84 v -5.641 z m 7.53,-0.109 c 1.46,0 2.54,1.083 2.54,2.927 0,1.844 -1.08,2.93 -2.54,2.93 -1.46,0 -2.56,-1.081 -2.56,-2.93 0,-1.849 1.1,-2.927 2.56,-2.927 z m 1.57,2.927 c 0,-1.844 -0.9,-2.2 -1.57,-2.2 -0.67,0 -1.58,0.354 -1.58,2.2 0,1.846 0.9,2.2 1.58,2.2 0.68,0 1.57,-0.353 1.57,-2.2 z m 3.34,-2.818 v 2.355 h 2.61 v -2.355 h 0.84 v 5.641 h -0.84 v -2.6 h -2.61 v 2.6 h -0.85 v -5.641 z m 6.27,0 v 2.355 h 2.62 v -2.355 h 0.84 v 5.641 h -0.84 v -2.6 h -2.62 v 2.6 h -0.84 v -5.641 z m 6.27,0 v 2.228 h 1.58 c 0.5019,-0.0471 1.0019,0.10727 1.39,0.429 0.3174,0.33204 0.4838,0.78028 0.46,1.239 0.027,0.51678 -0.1828,1.01773 -0.57,1.361 -0.3161,0.27083 -0.7244,0.40944 -1.14,0.387 h -2.56 v -5.641 h 0.84 z m 0,4.951 h 1.32 c 0.2963,0.0311 0.5932,-0.0523 0.83,-0.233 0.2337,-0.21293 0.3618,-0.51803 0.35,-0.834 0.022,-0.31485 -0.1218,-0.61842 -0.38,-0.8 -0.238,-0.12175 -0.5027,-0.18191 -0.77,-0.175 h -1.35 v 2.041 0 z m 5.01,-4.951 v 5.641 h -0.84 v -5.641 z m 2.82,0 v 3.383 c 7e-4,0.25887 -0.013,0.51758 -0.04,0.775 0.1451,-0.31151 0.3263,-0.60486 0.54,-0.874 l 2.11,-2.792 v -0.492 h 0.84 v 5.641 h -0.84 v -3.328 c 0,-0.26981 0.015,-0.53942 0.05,-0.807 -0.1394,0.28002 -0.3105,0.54309 -0.51,0.784 l -2.15,2.806 v 0.545 h -0.85 v -5.641 z m 2.82,-1.969 c 0,0.286 -0.099,0.56321 -0.29,0.776 -0.7033,0.61879 -1.7567,0.61879 -2.46,0 -0.1833,-0.21674 -0.2827,-0.49213 -0.28,-0.776 h 0.79 c 0.01,0.17209 0.077,0.33601 0.19,0.466 0.1425,0.13436 0.3347,0.20291 0.53,0.189 0.1986,0.0158 0.3946,-0.0528 0.54,-0.189 0.1092,-0.13243 0.1755,-0.29497 0.19,-0.466 z m 8.69,0.023 v 1.946 h 0.12 c 0.6547,0.0163 1.2906,0.22264 1.83,0.594 1.2508,1.15591 1.3269,3.10715 0.17,4.357 -0.5966,0.48494 -1.3522,0.73086 -2.12,0.69 v 1.833 h -0.84 v -1.833 c -0.7676,0.0393 -1.5226,-0.20641 -2.12,-0.69 -1.1569,-1.24985 -1.0808,-3.20109 0.17,-4.357 0.5431,-0.37148 1.1822,-0.57779 1.84,-0.594 h 0.11 v -1.946 z m -0.81,2.632 h -0.09 c -0.4189,-0.0237 -0.8348,0.0836 -1.19,0.307 -1.0115,1.01139 -0.9979,2.65537 0.03,3.65 0.3279,0.22602 0.7226,0.33456 1.12,0.308 h 0.13 z m 0.78,4.265 h 0.13 c 0.3974,0.0266 0.7921,-0.082 1.12,-0.308 0.5656,-0.42735 0.8655,-1.12014 0.79,-1.825 0.076,-0.6984 -0.2105,-1.38719 -0.76,-1.825 -0.3552,-0.22338 -0.7711,-0.33068 -1.19,-0.307 h -0.09 z m 6.59,-5.06 c 1.46,0 2.54,1.083 2.54,2.927 0,1.844 -1.08,2.93 -2.54,2.93 -1.46,0 -2.56,-1.081 -2.56,-2.93 0,-1.849 1.09,-2.927 2.56,-2.927 z m 1.57,2.927 c 0,-1.844 -0.9,-2.2 -1.57,-2.2 -0.67,0 -1.58,0.354 -1.58,2.2 0,1.846 0.9,2.2 1.58,2.2 0.68,0 1.57,-0.353 1.57,-2.2 z m 3.33,-2.818 v 2.355 h 2.62 v -2.355 h 0.84 v 5.641 h -0.84 v -2.6 h -2.62 v 2.6 h -0.84 v -5.641 z m 9.38,0 v 4.951 h 0.57 v 2.206 h -0.77 v -1.516 h -3.76 v 1.516 h -0.77 v -2.206 h 0.42 c 0.2093,-0.315 0.3868,-0.64997 0.53,-1 0.3616,-1.10957 0.5274,-2.27359 0.49,-3.44 l 0.01,-0.509 h 3.28 z m -2.58,0.987 c -0.021,1.07492 -0.1888,2.14191 -0.5,3.171 -0.1063,0.27033 -0.2265,0.53502 -0.36,0.793 h 2.6 v -4.265 h -1.73 l -0.01,0.3 v 0 z"
     id="path6"
     inkscape:connector-curvature="0"
     style="fill:#a72c4f;fill-opacity:1;fill-rule:evenodd"
     sodipodi:nodetypes="ccccccccccccccccccsccccccccccccccccccccccsssssssssscccccccccccccccccccccccccccccccccccccccccccccccccccccccccccccccccccccccccccccccccccccccccccccccccccccccccccccccccccccccccccccccccccccccccccccccccccccccccccccccccccccccccccccccccccccsccccccccccccccccccccccccccccccccccccccccccccccccccccccccccccccccccccscccccccscccccccccccccccccccccccccccccccccsccccccccccccccccccccccccccccccccccccccccccccccccscccccccscccccccssssssssssccccccccccccccccccccccccccccccccccccccccccccccccccccccccccccccccccccccccccccccccccccccccccccccccccccccccccccccsssssssssscccccccccccccccccccccccccccccccccccccc" />
  <path
     inkscape:connector-curvature="0"
     class="cls-1"
     d="m 123.02,0.617 v 4.481001 h -6.1 v 14.600001 h -5.2 V 0.617 Z m -15.03,8.3360014 h -7.51 v 3.7170006 h 5.06 z M 85.560001,5.422001 c 0,0 0.01,3.8000004 -0.04,5.000001 -0.12,2.811 -0.37,3.805 -0.78,4.476 -0.5,0.826 -1.37,1.061 -2.65,1.4 l 0.95,3.72 c 2.72,-0.106 3.57,-0.782 4.35,-1.46 1.17,-1.06 1.75,-2.5 2.08,-5.144 0.181066,-1.40751 0.274579,-2.824902 0.28,-4.2440006 h 2.51 V 19.688002 h 4.42 V 5.422001 Z M 4.35,0.611 c 0,0 0.02,5.275001 -0.05,6.877001 -0.17,3.764001 -0.64,5.616001 -1.47,6.792001 -0.6848705,0.95892 -1.6876471,1.643855 -2.83,1.933 l 3.3,3.959 c 1.2973706,-0.35877 2.4617079,-1.088653 3.35,-2.1 1.5,-1.783 2.5599999,-4.662 2.5999999,-13.077001 H 13.08 v 14.692001 h 5.25 V 0.617 H 4.35 v 0 z m 126.48,13.234002 c -0.0888,1.637872 -1.41088,2.938322 -3.05,3 -0.74987,0.06379 -1.39708,-0.520528 -1.41,-1.273 0,-1.153 0.54,-1.9 4.46,-1.9 v 0.181 0 z m 4.67,2.741 v -2.594 c 0,-1.129 0.21,-4.4880006 -0.48,-6.011001 -1.01,-2.253 -3.01,-2.985 -5.36,-2.985 -2.29574,-0.05636 -4.55142,0.608104 -6.45,1.9 l 1.73,2.8530004 c 1.16326,-0.688061 2.4885,-1.054573 3.84,-1.062 1.55,0.046 2.17,0.883 2.17,1.9000006 v 0.221 l -1.81,0.114 c -2.08,0.167 -4,0.19 -5.64,1.489 -1.01634,0.840948 -1.59424,2.09908 -1.57,3.418 0,1.847 1.31,4.125 4.99,4.125 1.56178,0.03426 3.03421,-0.726431 3.91,-2.02 0.0546,0.587654 0.16852,1.168276 0.34,1.733 h 4.75 c -0.30932,-0.999132 -0.45123,-2.042549 -0.42,-3.088 v 0 z m 27.4,-2.741 c -0.092,1.63642 -1.41228,2.935085 -3.05,3 -0.74987,0.06379 -1.39708,-0.520528 -1.41,-1.273 0,-1.153 0.54,-1.9 4.46,-1.9 v 0.181 0 z m 4.67,2.741 v -2.594 c 0,-1.129 0.2,-4.4880006 -0.48,-6.011001 -1.02,-2.253 -3.01,-2.985 -5.36,-2.985 -2.29574,-0.05636 -4.55142,0.608104 -6.45,1.9 l 1.73,2.8530004 c 1.16279,-0.689178 2.48833,-1.055776 3.84,-1.062 1.55,0.046 2.17,0.883 2.17,1.9000006 v 0.221 l -1.82,0.114 c -2.07,0.167 -4,0.19 -5.63,1.489 -1.01634,0.840948 -1.59424,2.09908 -1.57,3.418 0,1.847 1.3,4.125 4.99,4.125 1.56118,0.03167 3.03244,-0.728423 3.91,-2.02 0.0448,0.589022 0.15895,1.170704 0.34,1.733 h 4.75 c -0.30932,-0.999132 -0.45123,-2.042549 -0.42,-3.088 v 0 z M 185.62,5.436001 v 3.3910004 h 4.33 V 19.692002 h 4.72 L 194.66,8.8220014 h 4.3 V 5.431001 h -13.34 z m -109.64,-0.014 -3.92,6.533001 c -0.311682,0.560549 -0.652136,1.104608 -1.02,1.63 0.09,-0.446 0.19,-1.572 0.24,-2 V 5.422001 h -4.64 v 14.257001 h 4.62 l 4.28,-7.043 c 0.3,-0.669 0.46,-0.9 0.64,-1.374 -0.07,0.385 -0.2,1.758 -0.22,2.048 v 6.37 h 4.740001 l -0.01,-14.258001 z M 29.67,20.213002 c -0.488118,1.305701 -1.236611,2.498528 -2.2,3.505999 -1.051396,0.773023 -2.336454,1.161364 -3.64,1.1 -1.045733,0.01288 -2.090353,-0.07283 -3.12,-0.256 v -3.920999 c 0.659321,0.145071 1.327408,0.246954 2,0.305 0.74,0 2.13,0.02 2.58,-1.075 0.2,-0.494 0.19,-0.335 0.19,-0.335 L 20.15,5.425001 h 5.27 l 2.28,9.389001 1.7,-9.389001 h 5.08 c 0,0 -3.42,11.334001 -4.81,14.788001 z M 175.32,5.422001 v 5.223001 h 3.98 V 5.422001 h 4.67 v 14.251001 h -4.67 v -5.354 h -3.98 v 5.354 h -4.73 V 5.422001 Z M 72.02,0 c 0.009,0.394134 0.134208,0.776829 0.36,1.1 0.704812,0.749063 1.895188,0.749063 2.6,0 0.221257,-0.325418 0.346052,-0.706736 0.36,-1.1 l 3.62,0.323 C 78.93,1.556 78.67,4.996001 73.68,4.996001 68.69,4.996001 68.43,1.556 68.4,0.323 Z M 44.53,19.700002 h 5.54 l -5.14,-7.578 4.71,-6.700001 h -5.37 l -3.38,5.180001 H 40.31 V 5.422001 h -4.65 v 14.270001 h 4.65 v -5.628 h 0.48 l 3.74,5.628 v 0 z m 12.47,-3.039 c 1.75,0 2.37,-1.574 2.37,-4.126 0,-2.8000006 -0.35,-4.1240006 -2.27,-4.1240006 -1.79,0 -2.45,1.055 -2.45,4.1240006 0,2.544 0.46,4.126 2.35,4.126 z M 57.29,5.090001 c 4.02,0 7.07,2.094 7.07,7.445001 0,5.1 -3.05,7.446 -7.36,7.446 -4.43,0 -7.21,-2.4 -7.21,-7.446 0,-5.560001 3.48,-7.445001 7.5,-7.445001 z m 88.18,11.466001 c -0.80975,0.0075 -1.58705,-0.317898 -2.15,-0.9 v -5.364 c 0.54212,-0.8177776 1.42355,-1.3481006 2.4,-1.4440006 1.53,0 2.11,0.912 2.11,3.7160006 0,2.547 -0.62,3.985 -2.36,3.985 v 0 z m 1.51,-11.466001 c -1.39555,0.06548 -2.70971,0.675884 -3.66,1.7 v -1.368 h -4.65 v 19 h 4.65 v -5.199999 c 0.87404,0.47184 1.84705,0.730854 2.84,0.756 4.1,0 6.5,-2.345 6.5,-7.446 0,-5.351001 -1.67,-7.445001 -5.68,-7.445001 v 0 z"
     id="path6-8"
     style="fill:#4c5c67;fill-rule:evenodd"
     sodipodi:nodetypes="cccccccccccccccccccccccccccccccccccccccccccccccscccccscccccccccccccccccccscccccsccccccccccccccccccccccccccccccccccccccccccccccccccccccccccccccccccccsccccccccccccccccccssssssssssccccscccccccccccsccc" />
</svg>
